<svg xmlns="http://www.w3.org/2000/svg" style="display:none">
<!-- Iconos de Maitre. Un solo trazo, 24x24, puntas redondas. Sustituyen a los emojis de interfaz. -->
<defs><style>symbol{fill:none;stroke:currentColor;stroke-width:1.7;stroke-linecap:round;stroke-linejoin:round}</style></defs>

<symbol id="i-home" viewBox="0 0 24 24"><path d="M4 10.5 12 4l8 6.5V19a1 1 0 0 1-1 1h-4v-6H9v6H5a1 1 0 0 1-1-1z"/></symbol>
<symbol id="i-menu" viewBox="0 0 24 24"><path d="M4 5.5A1.5 1.5 0 0 1 5.5 4H11v16H5.5A1.5 1.5 0 0 1 4 18.5zM20 5.5A1.5 1.5 0 0 0 18.5 4H13v16h5.5a1.5 1.5 0 0 0 1.5-1.5z"/><path d="M6.5 8.5h2M6.5 11.5h2M15.5 8.5h2M15.5 11.5h2"/></symbol>
<symbol id="i-grid" viewBox="0 0 24 24"><rect x="4" y="4" width="7" height="7" rx="1.6"/><rect x="13" y="4" width="7" height="7" rx="1.6"/><rect x="4" y="13" width="7" height="7" rx="1.6"/><rect x="13" y="13" width="7" height="7" rx="1.6"/></symbol>
<symbol id="i-list" viewBox="0 0 24 24"><path d="M8 6.5h12M8 12h12M8 17.5h12M4.2 6.5h.01M4.2 12h.01M4.2 17.5h.01"/></symbol>
<symbol id="i-chart" viewBox="0 0 24 24"><path d="M4 20h16"/><rect x="5.5" y="11" width="3.6" height="6" rx="1"/><rect x="10.2" y="6.5" width="3.6" height="10.5" rx="1"/><rect x="14.9" y="13.5" width="3.6" height="3.5" rx="1"/></symbol>
<symbol id="i-users" viewBox="0 0 24 24"><circle cx="9" cy="8" r="3"/><path d="M3.5 19c0-3 2.5-5 5.5-5s5.5 2 5.5 5"/><path d="M16 5.5a3 3 0 0 1 0 5.6M17.5 14.4c2 .7 3.2 2.4 3.2 4.6"/></symbol>
<symbol id="i-settings" viewBox="0 0 24 24"><path d="M4 7h7M15 7h5M4 12h3M11 12h9M4 17h8M16 17h4"/><circle cx="13" cy="7" r="2"/><circle cx="9" cy="12" r="2"/><circle cx="14" cy="17" r="2"/></symbol>
<symbol id="i-card" viewBox="0 0 24 24"><rect x="3" y="5.5" width="18" height="13" rx="2.2"/><path d="M3 10h18M6.5 14.5h3"/></symbol>
<symbol id="i-bell" viewBox="0 0 24 24"><path d="M12 4a5.5 5.5 0 0 0-5.5 5.5c0 4-1.5 5.5-1.5 5.5h14s-1.5-1.5-1.5-5.5A5.5 5.5 0 0 0 12 4z"/><path d="M10.2 18.5a2 2 0 0 0 3.6 0"/></symbol>
<symbol id="i-receipt" viewBox="0 0 24 24"><path d="M6 3.5h12v17l-2-1.4-2 1.4-2-1.4-2 1.4-2-1.4-2 1.4z"/><path d="M9 8.5h6M9 12.5h6"/></symbol>
<symbol id="i-drop" viewBox="0 0 24 24"><path d="M12 3.5c3 3.8 5 6.4 5 9a5 5 0 0 1-10 0c0-2.6 2-5.2 5-9z"/></symbol>
<symbol id="i-help" viewBox="0 0 24 24"><circle cx="12" cy="12" r="8.5"/><path d="M9.7 9.6a2.4 2.4 0 1 1 3.1 2.6c-.6.2-.8.7-.8 1.3v.4M12 17h.01"/></symbol>
<symbol id="i-hand" viewBox="0 0 24 24"><path d="M9 11V5.6a1.3 1.3 0 0 1 2.6 0V11m0-.4V4.8a1.3 1.3 0 0 1 2.6 0v5.8m0-.4V6.6a1.3 1.3 0 0 1 2.6 0v6.9c0 3.6-2.2 6.5-5.6 6.5-2 0-3.3-.8-4.4-2.4L4 14.2a1.4 1.4 0 0 1 2.2-1.7L9 15.4"/></symbol>
<symbol id="i-check" viewBox="0 0 24 24"><path d="m5 12.8 4.4 4.2L19 7.2"/></symbol>
<symbol id="i-x" viewBox="0 0 24 24"><path d="M6.5 6.5l11 11M17.5 6.5l-11 11"/></symbol>
<symbol id="i-plus" viewBox="0 0 24 24"><path d="M12 5.5v13M5.5 12h13"/></symbol>
<symbol id="i-minus" viewBox="0 0 24 24"><path d="M5.5 12h13"/></symbol>
<symbol id="i-up" viewBox="0 0 24 24"><path d="M12 19V5.5M6 11l6-5.8 6 5.8"/></symbol>
<symbol id="i-down" viewBox="0 0 24 24"><path d="M12 5v13.5M6 13l6 5.8L18 13"/></symbol>
<symbol id="i-left" viewBox="0 0 24 24"><path d="m14.5 5.5-6.5 6.5 6.5 6.5"/></symbol>
<symbol id="i-right" viewBox="0 0 24 24"><path d="m9.5 5.5 6.5 6.5-6.5 6.5"/></symbol>
<symbol id="i-search" viewBox="0 0 24 24"><circle cx="10.8" cy="10.8" r="6.3"/><path d="m15.5 15.5 4 4"/></symbol>
<symbol id="i-filter" viewBox="0 0 24 24"><path d="M4 7h16M7 12h10M10 17h4"/></symbol>
<symbol id="i-print" viewBox="0 0 24 24"><path d="M7 9V4h10v5"/><path d="M7 17H5.5A1.5 1.5 0 0 1 4 15.5v-4A1.5 1.5 0 0 1 5.5 10h13a1.5 1.5 0 0 1 1.5 1.5v4a1.5 1.5 0 0 1-1.5 1.5H17"/><rect x="7" y="14" width="10" height="6.5" rx="1"/></symbol>
<symbol id="i-sound-on" viewBox="0 0 24 24"><path d="M11 5.5 6.5 9.5H4v5h2.5L11 18.5z"/><path d="M14.8 9.3a4 4 0 0 1 0 5.4M17.4 6.9a7.4 7.4 0 0 1 0 10.2"/></symbol>
<symbol id="i-sound-off" viewBox="0 0 24 24"><path d="M11 5.5 6.5 9.5H4v5h2.5L11 18.5z"/><path d="m15.5 10 4 4M19.5 10l-4 4"/></symbol>
<symbol id="i-vibrate" viewBox="0 0 24 24"><rect x="8" y="4" width="8" height="16" rx="2"/><path d="M4.5 9.5v5M2.2 11v2M19.5 9.5v5M21.8 11v2"/></symbol>
<symbol id="i-clock" viewBox="0 0 24 24"><circle cx="12" cy="12" r="8.5"/><path d="M12 7.5V12l3 1.8"/></symbol>
<symbol id="i-move" viewBox="0 0 24 24"><path d="M12 3.5v17M3.5 12h17M9.5 6 12 3.5 14.5 6M9.5 18l2.5 2.5L14.5 18M6 9.5 3.5 12 6 14.5M18 9.5l2.5 2.5L18 14.5"/></symbol>
<symbol id="i-merge" viewBox="0 0 24 24"><path d="M6 4v4.5c0 1.5 1 2.5 2.5 3l4 1.3c1.5.5 2.5 1.5 2.5 3V20M18 4v4.5c0 1.5-1 2.5-2.5 3"/><path d="M12 17l3 3 3-3"/></symbol>
<symbol id="i-ban" viewBox="0 0 24 24"><circle cx="12" cy="12" r="8.5"/><path d="m6.3 6.3 11.4 11.4"/></symbol>
<symbol id="i-star" viewBox="0 0 24 24"><path d="m12 4 2.4 5 5.6.8-4 3.9 1 5.5-5-2.7-5 2.7 1-5.5-4-3.9 5.6-.8z"/></symbol>
<symbol id="i-wifi" viewBox="0 0 24 24"><path d="M3 9.5a13 13 0 0 1 18 0M6.5 13a8 8 0 0 1 11 0M10 16.5a3 3 0 0 1 4 0M12 20h.01"/></symbol>
<symbol id="i-external" viewBox="0 0 24 24"><path d="M14 4.5h5.5V10M19 5l-7.5 7.5"/><path d="M18 14v4.5a1.5 1.5 0 0 1-1.5 1.5h-11A1.5 1.5 0 0 1 4 18.5v-11A1.5 1.5 0 0 1 5.5 6H10"/></symbol>
<symbol id="i-logout" viewBox="0 0 24 24"><path d="M10 4.5H6A1.5 1.5 0 0 0 4.5 6v12A1.5 1.5 0 0 0 6 19.5h4"/><path d="M14.5 8.5 18 12l-3.5 3.5M9 12h9"/></symbol>
<symbol id="i-burger" viewBox="0 0 24 24"><path d="M4 7h16M4 12h16M4 17h16"/></symbol>
<symbol id="i-camera" viewBox="0 0 24 24"><path d="M4 8.5h3l1.5-2.5h7L17 8.5h3a1.5 1.5 0 0 1 1.5 1.5v7A1.5 1.5 0 0 1 20 18.5H4A1.5 1.5 0 0 1 2.5 17v-7A1.5 1.5 0 0 1 4 8.5z"/><circle cx="12" cy="13" r="3.2"/></symbol>
<symbol id="i-upload" viewBox="0 0 24 24"><path d="M12 16V4.5M7.5 9 12 4.5 16.5 9"/><path d="M4.5 15v3.5A1.5 1.5 0 0 0 6 20h12a1.5 1.5 0 0 0 1.5-1.5V15"/></symbol>
<symbol id="i-download" viewBox="0 0 24 24"><path d="M12 4.5V16M7.5 11.5 12 16l4.5-4.5"/><path d="M4.5 15v3.5A1.5 1.5 0 0 0 6 20h12a1.5 1.5 0 0 0 1.5-1.5V15"/></symbol>
<symbol id="i-trash" viewBox="0 0 24 24"><path d="M4.5 7h15M9.5 7V5.2A1.2 1.2 0 0 1 10.7 4h2.6a1.2 1.2 0 0 1 1.2 1.2V7"/><path d="M6.5 7l.9 11.6A1.5 1.5 0 0 0 8.9 20h6.2a1.5 1.5 0 0 0 1.5-1.4L17.5 7"/></symbol>
<symbol id="i-edit" viewBox="0 0 24 24"><path d="M4.5 19.5h4L19 9a2.1 2.1 0 0 0-3-3L4.5 17.5z"/><path d="m14.5 7.5 2 2"/></symbol>
<symbol id="i-info" viewBox="0 0 24 24"><circle cx="12" cy="12" r="8.5"/><path d="M12 11v5.5M12 7.8h.01"/></symbol>
<symbol id="i-alert" viewBox="0 0 24 24"><path d="M12 4.5 21 19.5H3z"/><path d="M12 10v3.5M12 16.5h.01"/></symbol>
<symbol id="i-coffee" viewBox="0 0 24 24"><path d="M4.5 9h12v5.5a4.5 4.5 0 0 1-4.5 4.5H9a4.5 4.5 0 0 1-4.5-4.5z"/><path d="M16.5 10.5h1.8a2.3 2.3 0 0 1 0 4.6h-1.8M7 5.5V3.8M10.5 5.5V3.8M14 5.5V3.8"/></symbol>
<symbol id="i-qr" viewBox="0 0 24 24"><rect x="4" y="4" width="6" height="6" rx="1"/><rect x="14" y="4" width="6" height="6" rx="1"/><rect x="4" y="14" width="6" height="6" rx="1"/><path d="M14 14h2.5v2.5H14zM20 14v2.5M17.5 20H20M14 20h.01"/></symbol>
<symbol id="i-leaf" viewBox="0 0 24 24"><path d="M5 19c-1.5-6 2-12 14-13 1 8-3 13-9.5 13-2 0-3.3-.5-4.5 0z"/><path d="M7 17c2.5-3.5 5.5-6 9.5-7.5"/></symbol>
<symbol id="i-flame" viewBox="0 0 24 24"><path d="M12 3.5c3.5 4 6 6.5 6 10a6 6 0 0 1-12 0c0-2 .8-3.5 2-5 .3 1.2 1 2 2 2.3-.5-3 .8-5.5 2-7.3z"/></symbol>
<symbol id="i-wheat" viewBox="0 0 24 24"><path d="M12 20.5V9"/><path d="M12 9c0-2 1-3.5 3-4.5 1 2.3.3 4-3 4.5zM12 9c0-2-1-3.5-3-4.5-1 2.3-.3 4 3 4.5zM12 14c0-2 1-3.5 3-4.5 1 2.3.3 4-3 4.5zM12 14c0-2-1-3.5-3-4.5-1 2.3-.3 4 3 4.5z"/></symbol>
<symbol id="i-sparkle" viewBox="0 0 24 24"><path d="M12 3.5 13.8 9l5.7 1.8-5.7 1.9L12 18.5l-1.8-5.8-5.7-1.9L10.2 9z"/><path d="M18.5 4.5v2.8M17.1 5.9h2.8"/></symbol>
<symbol id="i-user" viewBox="0 0 24 24"><circle cx="12" cy="8.3" r="3.6"/><path d="M5 20c0-3.6 3.1-6.2 7-6.2s7 2.6 7 6.2"/></symbol>
<symbol id="i-note" viewBox="0 0 24 24"><path d="M5.5 4.5h13v15h-13z"/><path d="M8.5 9h7M8.5 12.5h7M8.5 16h4"/></symbol>
<symbol id="i-refresh" viewBox="0 0 24 24"><path d="M19.5 12a7.5 7.5 0 1 1-2.2-5.3"/><path d="M19.5 4.5V9H15"/></symbol>
<symbol id="i-lock" viewBox="0 0 24 24"><rect x="5" y="10.5" width="14" height="9.5" rx="2"/><path d="M8.2 10.5V8a3.8 3.8 0 0 1 7.6 0v2.5"/></symbol>
<symbol id="i-eye" viewBox="0 0 24 24"><path d="M2.5 12S6 6.5 12 6.5 21.5 12 21.5 12 18 17.5 12 17.5 2.5 12 2.5 12z"/><circle cx="12" cy="12" r="3"/></symbol>
<symbol id="i-table" viewBox="0 0 24 24"><rect x="3.5" y="6" width="17" height="5" rx="1.5"/><path d="M7 11v7M17 11v7"/></symbol>
<symbol id="i-fire-kitchen" viewBox="0 0 24 24"><path d="M4 11h16M5.5 11V8.5A3.5 3.5 0 0 1 9 5h6a3.5 3.5 0 0 1 3.5 3.5V11"/><path d="M6.5 11v8M17.5 11v8M9.5 15h5"/></symbol>
<symbol id="i-send" viewBox="0 0 24 24"><path d="M20 4 3.5 10.8l6.6 2.6L13 20z"/><path d="m10.1 13.4 4.4-4.4"/></symbol>
</svg>
